<svg width="250.00000000000003" height="247.9822751789547" viewBox="0 0 250.00000000000003 247.9822751789547" class="css-1j8o68f"><defs id="SvgjsDefs1108"></defs><g id="SvgjsG1109" featurekey="rootContainer" transform="matrix(2.4530634883643807,0,0,2.4530634883643807,0.10902506484402764,-0.02247682827270887)" fill="#005792"><path xmlns="http://www.w3.org/2000/svg" d="M101.8 83.6l-.2-29.5c0-6 .1-12.2-.2-18-.1-2.5-.1-5.1-.1-7.8 0-4.7-.1-9-.4-13.2l-.2-4.2c-.1-2.7-.2-5.3-.3-8V1h-7.3L77.2.7H66.6a25.7 25.7 0 0 0-5.5.6l-.6.3H49.8c-.1-.2-.8-.3-2.2-.4L34.3.3a130.5 130.5 0 0 0-18.8.1C12.3.6 9 .8 4.6.9L1.5.5H.4v1.2c-.2 2-.3 4.3-.3 7s0 6.8-.1 10.2 0 5.3 0 8a42.2 42.2 0 0 0 .4 6.9 20.3 20.3 0 0 1 .3 2.9c.1 3.8.4 4.8.8 5.5v17.6l-.2.5c.1 4-.1 7.6-.2 11.3-.3 7.4-.4 15-.1 22.5a25.5 25.5 0 0 0 .5 4.9v.8H6l-.2.2h5.4a51 51 0 0 1 8.6.4 21.1 21.1 0 0 0 3.8.3c6.6-.1 12.7.1 18.9.4h6.7l13.9-.3c6.1-.1 11.9-.5 18.3-.5h9.7l3.5-.2 2.8-.5h2.3v-1c.3 1.6.6 1.4 1-.8.1-.6.2-1.3.3-2s.3-2.6.5-3.4a51.3 51.3 0 0 0 .3-8.8z"></path></g><g id="SvgjsG1110" featurekey="symbolFeature-0" transform="matrix(0.7439245832680697,0,0,0.7439245832680697,87.89006479987304,40.981650007847435)" fill="#ffffff"><title xmlns="http://www.w3.org/2000/svg">123all</title><polygon xmlns="http://www.w3.org/2000/svg" points="61.96 42.76 67.04 47.57 85.72 27.82 67.04 8.09 61.96 12.9 72.77 24.32 13.59 24.32 13.59 31.32 72.77 31.32 61.96 42.76"></polygon><rect xmlns="http://www.w3.org/2000/svg" x="78.79" y="50.63" width="7" height="41.62"></rect><rect xmlns="http://www.w3.org/2000/svg" x="62.64" y="50.63" width="7" height="41.62"></rect><rect xmlns="http://www.w3.org/2000/svg" x="46.5" y="50.63" width="7" height="41.62"></rect><rect xmlns="http://www.w3.org/2000/svg" x="30.36" y="50.63" width="7" height="41.62"></rect><rect xmlns="http://www.w3.org/2000/svg" x="14.21" y="50.63" width="7" height="41.62"></rect></g><g id="SvgjsG1111" featurekey="nameFeature-0" transform="matrix(2.322610392083151,0,0,2.322610392083151,22.306003214782542,106.49556629532105)" fill="#ffffff"><path d="M7.44 22.96 c-0.42668 0 -0.7734 0.073164 -1.0401 0.21984 s-0.48 0.32668 -0.64 0.54 s-0.26668 0.44664 -0.32 0.69996 s-0.08 0.48664 -0.08 0.69996 l0 -0.04 c0 0.58668 0.21332 1.0867 0.64 1.5 s0.95336 0.79332 1.58 1.14 s1.3067 0.69336 2.04 1.04 s1.4133 0.74 2.04 1.18 s1.1534 0.94668 1.58 1.52 s0.64 1.2733 0.64 2.1 l0 1.04 c0 1.84 -0.55332 3.2267 -1.66 4.16 s-2.6067 1.4 -4.5 1.4 c-1.9467 0 -3.5267 -0.42 -4.74 -1.26 s-1.82 -2.1267 -1.82 -3.86 l0 -2.52 l1.8 0 c0.77332 0 1.3133 0.12 1.62 0.36 s0.46 0.74668 0.46 1.52 l0 0.08 c0 0.69332 0.16 1.28 0.48 1.76 s0.98668 0.72 2 0.72 s1.6866 -0.24 2.02 -0.72 s0.5 -1.08 0.5 -1.8 l0 -0.4 c0 -0.42668 -0.20668 -0.80668 -0.62 -1.14 s-0.94 -0.66664 -1.58 -0.99996 s-1.32 -0.68664 -2.04 -1.06 s-1.4 -0.81332 -2.04 -1.32 s-1.1667 -1.1 -1.58 -1.78 s-0.62 -1.5 -0.62 -2.46 l0 -0.96 c0 -1.4933 0.54 -2.6133 1.62 -3.36 s2.4333 -1.12 4.06 -1.12 c1.1733 0 2.1666 0.13332 2.98 0.4 s1.4733 0.63336 1.98 1.1 s0.87336 1.02 1.1 1.66 s0.34 1.3333 0.34 2.08 l0 1.96 l-1.52 0 c-0.72 0 -1.3 -0.08668 -1.74 -0.26 s-0.66 -0.68664 -0.66 -1.54 c0 -0.53332 -0.18668 -1.0466 -0.56 -1.54 s-0.94664 -0.74 -1.72 -0.74 z M24.630000000000003 36.96 c0.13332 -0.02668 0.28004 -0.006758 0.44004 0.059924 s0.24 0.22 0.24 0.46 l0 1.48 c0 0.34668 -0.06 0.58 -0.18 0.7 s-0.22 0.19332 -0.3 0.22 c-0.96 0.24 -1.8333 0.29332 -2.62 0.16 s-1.4667 -0.38664 -2.04 -0.75996 s-1.0133 -0.84664 -1.32 -1.42 s-0.46 -1.1933 -0.46 -1.86 l0 -12.64 l-2.32 0 l0 -0.96 c0 -0.85332 0.17332 -1.48 0.52 -1.88 s0.94668 -0.6 1.8 -0.6 l0 -4.88 l0 -0.16 c0 -0.88 0.2 -1.56 0.6 -2.04 s0.84 -0.82668 1.32 -1.04 c0.56 -0.26668 1.2 -0.41336 1.92 -0.44004 l0 8.56 l2.48 0 l0 0.8 c0 0.74668 -0.18 1.3734 -0.54 1.88 s-1.0067 0.76 -1.94 0.76 l0 12 c0 0.56 0.20668 1 0.62 1.32 s1.0066 0.41332 1.78 0.28 z M33.86 19.84 c0.96 0 1.8267 0.14004 2.6 0.42004 s1.44 0.66668 2 1.16 s0.98668 1.0666 1.28 1.72 s0.44 1.34 0.44 2.06 l0 9.4 c0 1.7333 -0.57332 3.1 -1.72 4.1 s-2.68 1.5 -4.6 1.5 c-2 0 -3.56 -0.52 -4.68 -1.56 s-1.68 -2.5867 -1.68 -4.64 l0 -8.08 c0 -2.0533 0.56 -3.58 1.68 -4.58 s2.68 -1.5 4.68 -1.5 z M33.86 37 c0.72 0 1.32 -0.22672 1.8 -0.68004 s0.72 -1.1333 0.72 -2.04 l0 -8.36 c0 -1.1467 -0.25332 -1.92 -0.76 -2.32 s-1.12 -0.6 -1.84 -0.6 c-0.74668 0 -1.3467 0.19332 -1.8 0.58 s-0.68 1.1134 -0.68 2.18 l0 8.44 c0 1.04 0.24 1.7667 0.72 2.18 s1.0933 0.62 1.84 0.62 z M54.21000000000001 27.119999999999997 c-1.44 0 -2.16 -0.5466 -2.16 -1.6399 c0 -0.66668 -0.20668 -1.2534 -0.62 -1.76 s-0.98 -0.76 -1.7 -0.76 c-0.74668 0 -1.3267 0.24668 -1.74 0.74 s-0.62 1.1666 -0.62 2.02 l0 8.52 c0 1.0667 0.20668 1.7934 0.62 2.18 s0.99332 0.58 1.74 0.58 c0.72 0 1.2867 -0.21332 1.7 -0.64 s0.62 -1.1067 0.62 -2.04 l0 -0.04 c0 -1.2533 0.72 -1.88 2.16 -1.88 l1.64 0 l0 2.32 c0 1.76 -0.54 3.1067 -1.62 4.04 s-2.58 1.4 -4.5 1.4 c-2 0 -3.5267 -0.49332 -4.58 -1.48 s-1.58 -2.4934 -1.58 -4.52 l0 -8.32 c0 -2.0533 0.52668 -3.5733 1.58 -4.56 s2.58 -1.48 4.58 -1.48 c0.96 0 1.82 0.14 2.58 0.42 s1.4 0.66 1.92 1.14 s0.92 1.04 1.2 1.68 s0.42 1.32 0.42 2.04 l0 2.04 l-1.64 0 l0 0 z M71.36000000000001 36.92 c0.66668 0.26668 0.99988 0.97316 0.99988 2.1198 l0 0.92 l-0.92 0 l-1.88 0 c-0.50668 0 -0.90668 -0.12668 -1.2 -0.38 s-0.64 -0.72664 -1.04 -1.42 c-0.72 -1.2 -1.3467 -2.2667 -1.88 -3.2 c-0.24 -0.4 -0.46668 -0.79332 -0.68 -1.18 s-0.41332 -0.72668 -0.6 -1.02 s-0.32668 -0.53332 -0.42 -0.72 l-0.14 -0.28 l-0.2 0.24 l0 4.12 c0 0.24 0.04 0.42 0.12 0.54 s0.18668 0.22 0.32 0.3 c0.18668 0.13332 0.36 0.35332 0.52 0.66 s0.24 0.71336 0.24 1.22 l0 1.12 l-6.24 0 l0 -1.16 c0 -0.50668 0.08 -0.91336 0.24 -1.22 s0.34668 -0.52668 0.56 -0.66 c0.13332 -0.08 0.24 -0.17332 0.32 -0.28 s0.12 -0.29336 0.12 -0.56004 l0 -21.96 c0 -0.21332 -0.04668 -0.38664 -0.14 -0.51996 s-0.20664 -0.25332 -0.33996 -0.36 c-0.21332 -0.13332 -0.41332 -0.34664 -0.6 -0.63996 s-0.28 -0.66664 -0.28 -1.12 l0 -1.36 l4.16 0 c0.66668 0 1 0.30668 1 0.92 l0 14.92 l4.08 -5.28 c0.24 -0.32 0.47332 -0.52 0.7 -0.6 s0.67336 -0.12 1.34 -0.12 l1.12 0 l0.92 0 l0 0.92 c0 1.1467 -0.33332 1.8534 -1 2.12 c-0.18668 0.08 -0.35336 0.18 -0.50004 0.3 s-0.28668 0.28668 -0.42 0.5 l-3.6 4.84 l0.32 0.52 l0.78 1.32 l1.02 1.74 l1.04 1.78 l0.84 1.46 l0.44 0.74 c0.18668 0.26668 0.33336 0.44 0.44004 0.52 s0.25336 0.14668 0.44004 0.2 z M80.83 22.96 c-0.42668 0 -0.7734 0.073164 -1.0401 0.21984 s-0.48 0.32668 -0.64 0.54 s-0.26668 0.44664 -0.32 0.69996 s-0.08 0.48664 -0.08 0.69996 l0 -0.04 c0 0.58668 0.21332 1.0867 0.64 1.5 s0.95336 0.79332 1.58 1.14 s1.3067 0.69336 2.04 1.04 s1.4133 0.74 2.04 1.18 s1.1534 0.94668 1.58 1.52 s0.64 1.2733 0.64 2.1 l0 1.04 c0 1.84 -0.55332 3.2267 -1.66 4.16 s-2.6067 1.4 -4.5 1.4 c-1.9467 0 -3.5267 -0.42 -4.74 -1.26 s-1.82 -2.1267 -1.82 -3.86 l0 -2.52 l1.8 0 c0.77332 0 1.3133 0.12 1.62 0.36 s0.46 0.74668 0.46 1.52 l0 0.08 c0 0.69332 0.16 1.28 0.48 1.76 s0.98668 0.72 2 0.72 s1.6866 -0.24 2.02 -0.72 s0.5 -1.08 0.5 -1.8 l0 -0.4 c0 -0.42668 -0.20668 -0.80668 -0.62 -1.14 s-0.94 -0.66664 -1.58 -0.99996 s-1.32 -0.68664 -2.04 -1.06 s-1.4 -0.81332 -2.04 -1.32 s-1.1667 -1.1 -1.58 -1.78 s-0.62 -1.5 -0.62 -2.46 l0 -0.96 c0 -1.4933 0.54 -2.6133 1.62 -3.36 s2.4333 -1.12 4.06 -1.12 c1.1733 0 2.1666 0.13332 2.98 0.4 s1.4733 0.63336 1.98 1.1 s0.87336 1.02 1.1 1.66 s0.34 1.3333 0.34 2.08 l0 1.96 l-1.52 0 c-0.72 0 -1.3 -0.08668 -1.74 -0.26 s-0.66 -0.68664 -0.66 -1.54 c0 -0.53332 -0.18668 -1.0466 -0.56 -1.54 s-0.94664 -0.74 -1.72 -0.74 z"></path></g></svg>